<svg xmlns="http://www.w3.org/2000/svg" fill="none" viewBox="0 0 128 128">
    <path fill-rule="evenodd" clip-rule="evenodd" d="M22,20 H106 A14,14 0 0 1 120,34 V94 A14,14 0 0 1 106,108 H22 A14,14 0 0 1 8,94 V34 A14,14 0 0 1 22,20 Z M26,30 H102 A8,8 0 0 1 110,38 V90 A8,8 0 0 1 102,98 H26 A8,8 0 0 1 18,90 V38 A8,8 0 0 1 26,30 Z" />
    <path d="M32,44 L60,64 L32,84 L40,84 L68,64 L40,44 Z" />
    <path d="M76,60 H94 V68 H76 Z" />
    <style>
        path { fill: #000; }
        @media (prefers-color-scheme: dark) {
            path { fill: #FFF; }
        }
    </style>
</svg>
